<?xml version="1.0" encoding="utf-8" standalone="no"?>
<!DOCTYPE svg PUBLIC "-//W3C//DTD SVG 1.1//EN"
  "http://www.w3.org/Graphics/SVG/1.1/DTD/svg11.dtd">
<svg xmlns:xlink="http://www.w3.org/1999/xlink" width="972pt" height="612pt" viewBox="0 0 972 612" xmlns="http://www.w3.org/2000/svg" version="1.1">
 <metadata>
  <rdf:RDF xmlns:dc="http://purl.org/dc/elements/1.1/" xmlns:cc="http://creativecommons.org/ns#" xmlns:rdf="http://www.w3.org/1999/02/22-rdf-syntax-ns#">
   <cc:Work>
    <dc:type rdf:resource="http://purl.org/dc/dcmitype/StillImage"/>
    <dc:date>2026-02-25T04:22:27.937683</dc:date>
    <dc:format>image/svg+xml</dc:format>
    <dc:creator>
     <cc:Agent>
      <dc:title>Matplotlib v3.9.4, https://matplotlib.org/</dc:title>
     </cc:Agent>
    </dc:creator>
   </cc:Work>
  </rdf:RDF>
 </metadata>
 <defs>
  <style type="text/css">*{stroke-linejoin: round; stroke-linecap: butt}</style>
 </defs>
 <g id="figure_1">
  <g id="patch_1">
   <path d="M 0 612 
L 972 612 
L 972 0 
L 0 0 
z
" style="fill: #ffffff"/>
  </g>
  <g id="axes_1">
   <g id="text_1">
    <g id="patch_2">
     <path d="M 45.537839 96.864094 
L 179.114401 96.864094 
Q 183.614401 96.864094 183.614401 92.364094 
L 183.614401 70.931906 
Q 183.614401 66.431906 179.114401 66.431906 
L 45.537839 66.431906 
Q 41.037839 66.431906 41.037839 70.931906 
L 41.037839 92.364094 
Q 41.037839 96.864094 45.537839 96.864094 
z
" style="fill: #f7f9fb; stroke: #49657a; stroke-width: 1.2; stroke-linejoin: miter"/>
    </g>
    <!-- source_manifest.csv -->
    <g transform="translate(61.428464 78.530344) scale(0.1 -0.1)">
     <defs>
      <path id="DejaVuSans-73" d="M 2834 3397 
L 2834 2853 
Q 2591 2978 2328 3040 
Q 2066 3103 1784 3103 
Q 1356 3103 1142 2972 
Q 928 2841 928 2578 
Q 928 2378 1081 2264 
Q 1234 2150 1697 2047 
L 1894 2003 
Q 2506 1872 2764 1633 
Q 3022 1394 3022 966 
Q 3022 478 2636 193 
Q 2250 -91 1575 -91 
Q 1294 -91 989 -36 
Q 684 19 347 128 
L 347 722 
Q 666 556 975 473 
Q 1284 391 1588 391 
Q 1994 391 2212 530 
Q 2431 669 2431 922 
Q 2431 1156 2273 1281 
Q 2116 1406 1581 1522 
L 1381 1569 
Q 847 1681 609 1914 
Q 372 2147 372 2553 
Q 372 3047 722 3315 
Q 1072 3584 1716 3584 
Q 2034 3584 2315 3537 
Q 2597 3491 2834 3397 
z
" transform="scale(0.015625)"/>
      <path id="DejaVuSans-6f" d="M 1959 3097 
Q 1497 3097 1228 2736 
Q 959 2375 959 1747 
Q 959 1119 1226 758 
Q 1494 397 1959 397 
Q 2419 397 2687 759 
Q 2956 1122 2956 1747 
Q 2956 2369 2687 2733 
Q 2419 3097 1959 3097 
z
M 1959 3584 
Q 2709 3584 3137 3096 
Q 3566 2609 3566 1747 
Q 3566 888 3137 398 
Q 2709 -91 1959 -91 
Q 1206 -91 779 398 
Q 353 888 353 1747 
Q 353 2609 779 3096 
Q 1206 3584 1959 3584 
z
" transform="scale(0.015625)"/>
      <path id="DejaVuSans-75" d="M 544 1381 
L 544 3500 
L 1119 3500 
L 1119 1403 
Q 1119 906 1312 657 
Q 1506 409 1894 409 
Q 2359 409 2629 706 
Q 2900 1003 2900 1516 
L 2900 3500 
L 3475 3500 
L 3475 0 
L 2900 0 
L 2900 538 
Q 2691 219 2414 64 
Q 2138 -91 1772 -91 
Q 1169 -91 856 284 
Q 544 659 544 1381 
z
M 1991 3584 
L 1991 3584 
z
" transform="scale(0.015625)"/>
      <path id="DejaVuSans-72" d="M 2631 2963 
Q 2534 3019 2420 3045 
Q 2306 3072 2169 3072 
Q 1681 3072 1420 2755 
Q 1159 2438 1159 1844 
L 1159 0 
L 581 0 
L 581 3500 
L 1159 3500 
L 1159 2956 
Q 1341 3275 1631 3429 
Q 1922 3584 2338 3584 
Q 2397 3584 2469 3576 
Q 2541 3569 2628 3553 
L 2631 2963 
z
" transform="scale(0.015625)"/>
      <path id="DejaVuSans-63" d="M 3122 3366 
L 3122 2828 
Q 2878 2963 2633 3030 
Q 2388 3097 2138 3097 
Q 1578 3097 1268 2742 
Q 959 2388 959 1747 
Q 959 1106 1268 751 
Q 1578 397 2138 397 
Q 2388 397 2633 464 
Q 2878 531 3122 666 
L 3122 134 
Q 2881 22 2623 -34 
Q 2366 -91 2075 -91 
Q 1284 -91 818 406 
Q 353 903 353 1747 
Q 353 2603 823 3093 
Q 1294 3584 2113 3584 
Q 2378 3584 2631 3529 
Q 2884 3475 3122 3366 
z
" transform="scale(0.015625)"/>
      <path id="DejaVuSans-65" d="M 3597 1894 
L 3597 1613 
L 953 1613 
Q 991 1019 1311 708 
Q 1631 397 2203 397 
Q 2534 397 2845 478 
Q 3156 559 3463 722 
L 3463 178 
Q 3153 47 2828 -22 
Q 2503 -91 2169 -91 
Q 1331 -91 842 396 
Q 353 884 353 1716 
Q 353 2575 817 3079 
Q 1281 3584 2069 3584 
Q 2775 3584 3186 3129 
Q 3597 2675 3597 1894 
z
M 3022 2063 
Q 3016 2534 2758 2815 
Q 2500 3097 2075 3097 
Q 1594 3097 1305 2825 
Q 1016 2553 972 2059 
L 3022 2063 
z
" transform="scale(0.015625)"/>
      <path id="DejaVuSans-5f" d="M 3263 -1063 
L 3263 -1509 
L -63 -1509 
L -63 -1063 
L 3263 -1063 
z
" transform="scale(0.015625)"/>
      <path id="DejaVuSans-6d" d="M 3328 2828 
Q 3544 3216 3844 3400 
Q 4144 3584 4550 3584 
Q 5097 3584 5394 3201 
Q 5691 2819 5691 2113 
L 5691 0 
L 5113 0 
L 5113 2094 
Q 5113 2597 4934 2840 
Q 4756 3084 4391 3084 
Q 3944 3084 3684 2787 
Q 3425 2491 3425 1978 
L 3425 0 
L 2847 0 
L 2847 2094 
Q 2847 2600 2669 2842 
Q 2491 3084 2119 3084 
Q 1678 3084 1418 2786 
Q 1159 2488 1159 1978 
L 1159 0 
L 581 0 
L 581 3500 
L 1159 3500 
L 1159 2956 
Q 1356 3278 1631 3431 
Q 1906 3584 2284 3584 
Q 2666 3584 2933 3390 
Q 3200 3197 3328 2828 
z
" transform="scale(0.015625)"/>
      <path id="DejaVuSans-61" d="M 2194 1759 
Q 1497 1759 1228 1600 
Q 959 1441 959 1056 
Q 959 750 1161 570 
Q 1363 391 1709 391 
Q 2188 391 2477 730 
Q 2766 1069 2766 1631 
L 2766 1759 
L 2194 1759 
z
M 3341 1997 
L 3341 0 
L 2766 0 
L 2766 531 
Q 2569 213 2275 61 
Q 1981 -91 1556 -91 
Q 1019 -91 701 211 
Q 384 513 384 1019 
Q 384 1609 779 1909 
Q 1175 2209 1959 2209 
L 2766 2209 
L 2766 2266 
Q 2766 2663 2505 2880 
Q 2244 3097 1772 3097 
Q 1472 3097 1187 3025 
Q 903 2953 641 2809 
L 641 3341 
Q 956 3463 1253 3523 
Q 1550 3584 1831 3584 
Q 2591 3584 2966 3190 
Q 3341 2797 3341 1997 
z
" transform="scale(0.015625)"/>
      <path id="DejaVuSans-6e" d="M 3513 2113 
L 3513 0 
L 2938 0 
L 2938 2094 
Q 2938 2591 2744 2837 
Q 2550 3084 2163 3084 
Q 1697 3084 1428 2787 
Q 1159 2491 1159 1978 
L 1159 0 
L 581 0 
L 581 3500 
L 1159 3500 
L 1159 2956 
Q 1366 3272 1645 3428 
Q 1925 3584 2291 3584 
Q 2894 3584 3203 3211 
Q 3513 2838 3513 2113 
z
" transform="scale(0.015625)"/>
      <path id="DejaVuSans-69" d="M 603 3500 
L 1178 3500 
L 1178 0 
L 603 0 
L 603 3500 
z
M 603 4863 
L 1178 4863 
L 1178 4134 
L 603 4134 
L 603 4863 
z
" transform="scale(0.015625)"/>
      <path id="DejaVuSans-66" d="M 2375 4863 
L 2375 4384 
L 1825 4384 
Q 1516 4384 1395 4259 
Q 1275 4134 1275 3809 
L 1275 3500 
L 2222 3500 
L 2222 3053 
L 1275 3053 
L 1275 0 
L 697 0 
L 697 3053 
L 147 3053 
L 147 3500 
L 697 3500 
L 697 3744 
Q 697 4328 969 4595 
Q 1241 4863 1831 4863 
L 2375 4863 
z
" transform="scale(0.015625)"/>
      <path id="DejaVuSans-74" d="M 1172 4494 
L 1172 3500 
L 2356 3500 
L 2356 3053 
L 1172 3053 
L 1172 1153 
Q 1172 725 1289 603 
Q 1406 481 1766 481 
L 2356 481 
L 2356 0 
L 1766 0 
Q 1100 0 847 248 
Q 594 497 594 1153 
L 594 3053 
L 172 3053 
L 172 3500 
L 594 3500 
L 594 4494 
L 1172 4494 
z
" transform="scale(0.015625)"/>
      <path id="DejaVuSans-2e" d="M 684 794 
L 1344 794 
L 1344 0 
L 684 0 
L 684 794 
z
" transform="scale(0.015625)"/>
      <path id="DejaVuSans-76" d="M 191 3500 
L 800 3500 
L 1894 563 
L 2988 3500 
L 3597 3500 
L 2284 0 
L 1503 0 
L 191 3500 
z
" transform="scale(0.015625)"/>
     </defs>
     <use xlink:href="#DejaVuSans-73"/>
     <use xlink:href="#DejaVuSans-6f" x="52.099609"/>
     <use xlink:href="#DejaVuSans-75" x="113.28125"/>
     <use xlink:href="#DejaVuSans-72" x="176.660156"/>
     <use xlink:href="#DejaVuSans-63" x="215.523438"/>
     <use xlink:href="#DejaVuSans-65" x="270.503906"/>
     <use xlink:href="#DejaVuSans-5f" x="332.027344"/>
     <use xlink:href="#DejaVuSans-6d" x="382.027344"/>
     <use xlink:href="#DejaVuSans-61" x="479.439453"/>
     <use xlink:href="#DejaVuSans-6e" x="540.71875"/>
     <use xlink:href="#DejaVuSans-69" x="604.097656"/>
     <use xlink:href="#DejaVuSans-66" x="631.880859"/>
     <use xlink:href="#DejaVuSans-65" x="667.085938"/>
     <use xlink:href="#DejaVuSans-73" x="728.609375"/>
     <use xlink:href="#DejaVuSans-74" x="780.708984"/>
     <use xlink:href="#DejaVuSans-2e" x="819.917969"/>
     <use xlink:href="#DejaVuSans-63" x="851.705078"/>
     <use xlink:href="#DejaVuSans-73" x="906.685547"/>
     <use xlink:href="#DejaVuSans-76" x="958.785156"/>
    </g>
    <!-- (source_id/tier/confidence) -->
    <g transform="translate(45.537839 90.006281) scale(0.1 -0.1)">
     <defs>
      <path id="DejaVuSans-28" d="M 1984 4856 
Q 1566 4138 1362 3434 
Q 1159 2731 1159 2009 
Q 1159 1288 1364 580 
Q 1569 -128 1984 -844 
L 1484 -844 
Q 1016 -109 783 600 
Q 550 1309 550 2009 
Q 550 2706 781 3412 
Q 1013 4119 1484 4856 
L 1984 4856 
z
" transform="scale(0.015625)"/>
      <path id="DejaVuSans-64" d="M 2906 2969 
L 2906 4863 
L 3481 4863 
L 3481 0 
L 2906 0 
L 2906 525 
Q 2725 213 2448 61 
Q 2172 -91 1784 -91 
Q 1150 -91 751 415 
Q 353 922 353 1747 
Q 353 2572 751 3078 
Q 1150 3584 1784 3584 
Q 2172 3584 2448 3432 
Q 2725 3281 2906 2969 
z
M 947 1747 
Q 947 1113 1208 752 
Q 1469 391 1925 391 
Q 2381 391 2643 752 
Q 2906 1113 2906 1747 
Q 2906 2381 2643 2742 
Q 2381 3103 1925 3103 
Q 1469 3103 1208 2742 
Q 947 2381 947 1747 
z
" transform="scale(0.015625)"/>
      <path id="DejaVuSans-2f" d="M 1625 4666 
L 2156 4666 
L 531 -594 
L 0 -594 
L 1625 4666 
z
" transform="scale(0.015625)"/>
      <path id="DejaVuSans-29" d="M 513 4856 
L 1013 4856 
Q 1481 4119 1714 3412 
Q 1947 2706 1947 2009 
Q 1947 1309 1714 600 
Q 1481 -109 1013 -844 
L 513 -844 
Q 928 -128 1133 580 
Q 1338 1288 1338 2009 
Q 1338 2731 1133 3434 
Q 928 4138 513 4856 
z
" transform="scale(0.015625)"/>
     </defs>
     <use xlink:href="#DejaVuSans-28"/>
     <use xlink:href="#DejaVuSans-73" x="39.013672"/>
     <use xlink:href="#DejaVuSans-6f" x="91.113281"/>
     <use xlink:href="#DejaVuSans-75" x="152.294922"/>
     <use xlink:href="#DejaVuSans-72" x="215.673828"/>
     <use xlink:href="#DejaVuSans-63" x="254.537109"/>
     <use xlink:href="#DejaVuSans-65" x="309.517578"/>
     <use xlink:href="#DejaVuSans-5f" x="371.041016"/>
     <use xlink:href="#DejaVuSans-69" x="421.041016"/>
     <use xlink:href="#DejaVuSans-64" x="448.824219"/>
     <use xlink:href="#DejaVuSans-2f" x="512.300781"/>
     <use xlink:href="#DejaVuSans-74" x="545.992188"/>
     <use xlink:href="#DejaVuSans-69" x="585.201172"/>
     <use xlink:href="#DejaVuSans-65" x="612.984375"/>
     <use xlink:href="#DejaVuSans-72" x="674.507812"/>
     <use xlink:href="#DejaVuSans-2f" x="715.621094"/>
     <use xlink:href="#DejaVuSans-63" x="749.3125"/>
     <use xlink:href="#DejaVuSans-6f" x="804.292969"/>
     <use xlink:href="#DejaVuSans-6e" x="865.474609"/>
     <use xlink:href="#DejaVuSans-66" x="928.853516"/>
     <use xlink:href="#DejaVuSans-69" x="964.058594"/>
     <use xlink:href="#DejaVuSans-64" x="991.841797"/>
     <use xlink:href="#DejaVuSans-65" x="1055.318359"/>
     <use xlink:href="#DejaVuSans-6e" x="1116.841797"/>
     <use xlink:href="#DejaVuSans-63" x="1180.220703"/>
     <use xlink:href="#DejaVuSans-65" x="1235.201172"/>
     <use xlink:href="#DejaVuSans-29" x="1296.724609"/>
    </g>
   </g>
   <g id="text_2">
    <g id="patch_3">
     <path d="M 24.451901 202.997031 
L 200.200339 202.997031 
Q 204.700339 202.997031 204.700339 198.497031 
L 204.700339 177.621094 
Q 204.700339 173.121094 200.200339 173.121094 
L 24.451901 173.121094 
Q 19.951901 173.121094 19.951901 177.621094 
L 19.951901 198.497031 
Q 19.951901 202.997031 24.451901 202.997031 
z
" style="fill: #f7f9fb; stroke: #49657a; stroke-width: 1.2; stroke-linejoin: miter"/>
    </g>
    <!-- raw quarterly + CFO -->
    <g transform="translate(60.954245 184.941406) scale(0.1 -0.1)">
     <defs>
      <path id="DejaVuSans-77" d="M 269 3500 
L 844 3500 
L 1563 769 
L 2278 3500 
L 2956 3500 
L 3675 769 
L 4391 3500 
L 4966 3500 
L 4050 0 
L 3372 0 
L 2619 2869 
L 1863 0 
L 1184 0 
L 269 3500 
z
" transform="scale(0.015625)"/>
      <path id="DejaVuSans-20" transform="scale(0.015625)"/>
      <path id="DejaVuSans-71" d="M 947 1747 
Q 947 1113 1208 752 
Q 1469 391 1925 391 
Q 2381 391 2643 752 
Q 2906 1113 2906 1747 
Q 2906 2381 2643 2742 
Q 2381 3103 1925 3103 
Q 1469 3103 1208 2742 
Q 947 2381 947 1747 
z
M 2906 525 
Q 2725 213 2448 61 
Q 2172 -91 1784 -91 
Q 1150 -91 751 415 
Q 353 922 353 1747 
Q 353 2572 751 3078 
Q 1150 3584 1784 3584 
Q 2172 3584 2448 3432 
Q 2725 3281 2906 2969 
L 2906 3500 
L 3481 3500 
L 3481 -1331 
L 2906 -1331 
L 2906 525 
z
" transform="scale(0.015625)"/>
      <path id="DejaVuSans-6c" d="M 603 4863 
L 1178 4863 
L 1178 0 
L 603 0 
L 603 4863 
z
" transform="scale(0.015625)"/>
      <path id="DejaVuSans-79" d="M 2059 -325 
Q 1816 -950 1584 -1140 
Q 1353 -1331 966 -1331 
L 506 -1331 
L 506 -850 
L 844 -850 
Q 1081 -850 1212 -737 
Q 1344 -625 1503 -206 
L 1606 56 
L 191 3500 
L 800 3500 
L 1894 763 
L 2988 3500 
L 3597 3500 
L 2059 -325 
z
" transform="scale(0.015625)"/>
      <path id="DejaVuSans-2b" d="M 2944 4013 
L 2944 2272 
L 4684 2272 
L 4684 1741 
L 2944 1741 
L 2944 0 
L 2419 0 
L 2419 1741 
L 678 1741 
L 678 2272 
L 2419 2272 
L 2419 4013 
L 2944 4013 
z
" transform="scale(0.015625)"/>
      <path id="DejaVuSans-43" d="M 4122 4306 
L 4122 3641 
Q 3803 3938 3442 4084 
Q 3081 4231 2675 4231 
Q 1875 4231 1450 3742 
Q 1025 3253 1025 2328 
Q 1025 1406 1450 917 
Q 1875 428 2675 428 
Q 3081 428 3442 575 
Q 3803 722 4122 1019 
L 4122 359 
Q 3791 134 3420 21 
Q 3050 -91 2638 -91 
Q 1578 -91 968 557 
Q 359 1206 359 2328 
Q 359 3453 968 4101 
Q 1578 4750 2638 4750 
Q 3056 4750 3426 4639 
Q 3797 4528 4122 4306 
z
" transform="scale(0.015625)"/>
      <path id="DejaVuSans-46" d="M 628 4666 
L 3309 4666 
L 3309 4134 
L 1259 4134 
L 1259 2759 
L 3109 2759 
L 3109 2228 
L 1259 2228 
L 1259 0 
L 628 0 
L 628 4666 
z
" transform="scale(0.015625)"/>
      <path id="DejaVuSans-4f" d="M 2522 4238 
Q 1834 4238 1429 3725 
Q 1025 3213 1025 2328 
Q 1025 1447 1429 934 
Q 1834 422 2522 422 
Q 3209 422 3611 934 
Q 4013 1447 4013 2328 
Q 4013 3213 3611 3725 
Q 3209 4238 2522 4238 
z
M 2522 4750 
Q 3503 4750 4090 4092 
Q 4678 3434 4678 2328 
Q 4678 1225 4090 567 
Q 3503 -91 2522 -91 
Q 1538 -91 948 565 
Q 359 1222 359 2328 
Q 359 3434 948 4092 
Q 1538 4750 2522 4750 
z
" transform="scale(0.015625)"/>
     </defs>
     <use xlink:href="#DejaVuSans-72"/>
     <use xlink:href="#DejaVuSans-61" x="41.113281"/>
     <use xlink:href="#DejaVuSans-77" x="102.392578"/>
     <use xlink:href="#DejaVuSans-20" x="184.179688"/>
     <use xlink:href="#DejaVuSans-71" x="215.966797"/>
     <use xlink:href="#DejaVuSans-75" x="279.443359"/>
     <use xlink:href="#DejaVuSans-61" x="342.822266"/>
     <use xlink:href="#DejaVuSans-72" x="404.101562"/>
     <use xlink:href="#DejaVuSans-74" x="445.214844"/>
     <use xlink:href="#DejaVuSans-65" x="484.423828"/>
     <use xlink:href="#DejaVuSans-72" x="545.947266"/>
     <use xlink:href="#DejaVuSans-6c" x="587.060547"/>
     <use xlink:href="#DejaVuSans-79" x="614.84375"/>
     <use xlink:href="#DejaVuSans-20" x="674.023438"/>
     <use xlink:href="#DejaVuSans-2b" x="705.810547"/>
     <use xlink:href="#DejaVuSans-20" x="789.599609"/>
     <use xlink:href="#DejaVuSans-43" x="821.386719"/>
     <use xlink:href="#DejaVuSans-46" x="891.210938"/>
     <use xlink:href="#DejaVuSans-4f" x="948.730469"/>
    </g>
    <!-- public_observed + subjective_prior -->
    <g transform="translate(24.451901 196.139219) scale(0.1 -0.1)">
     <defs>
      <path id="DejaVuSans-70" d="M 1159 525 
L 1159 -1331 
L 581 -1331 
L 581 3500 
L 1159 3500 
L 1159 2969 
Q 1341 3281 1617 3432 
Q 1894 3584 2278 3584 
Q 2916 3584 3314 3078 
Q 3713 2572 3713 1747 
Q 3713 922 3314 415 
Q 2916 -91 2278 -91 
Q 1894 -91 1617 61 
Q 1341 213 1159 525 
z
M 3116 1747 
Q 3116 2381 2855 2742 
Q 2594 3103 2138 3103 
Q 1681 3103 1420 2742 
Q 1159 2381 1159 1747 
Q 1159 1113 1420 752 
Q 1681 391 2138 391 
Q 2594 391 2855 752 
Q 3116 1113 3116 1747 
z
" transform="scale(0.015625)"/>
      <path id="DejaVuSans-62" d="M 3116 1747 
Q 3116 2381 2855 2742 
Q 2594 3103 2138 3103 
Q 1681 3103 1420 2742 
Q 1159 2381 1159 1747 
Q 1159 1113 1420 752 
Q 1681 391 2138 391 
Q 2594 391 2855 752 
Q 3116 1113 3116 1747 
z
M 1159 2969 
Q 1341 3281 1617 3432 
Q 1894 3584 2278 3584 
Q 2916 3584 3314 3078 
Q 3713 2572 3713 1747 
Q 3713 922 3314 415 
Q 2916 -91 2278 -91 
Q 1894 -91 1617 61 
Q 1341 213 1159 525 
L 1159 0 
L 581 0 
L 581 4863 
L 1159 4863 
L 1159 2969 
z
" transform="scale(0.015625)"/>
      <path id="DejaVuSans-6a" d="M 603 3500 
L 1178 3500 
L 1178 -63 
Q 1178 -731 923 -1031 
Q 669 -1331 103 -1331 
L -116 -1331 
L -116 -844 
L 38 -844 
Q 366 -844 484 -692 
Q 603 -541 603 -63 
L 603 3500 
z
M 603 4863 
L 1178 4863 
L 1178 4134 
L 603 4134 
L 603 4863 
z
" transform="scale(0.015625)"/>
     </defs>
     <use xlink:href="#DejaVuSans-70"/>
     <use xlink:href="#DejaVuSans-75" x="63.476562"/>
     <use xlink:href="#DejaVuSans-62" x="126.855469"/>
     <use xlink:href="#DejaVuSans-6c" x="190.332031"/>
     <use xlink:href="#DejaVuSans-69" x="218.115234"/>
     <use xlink:href="#DejaVuSans-63" x="245.898438"/>
     <use xlink:href="#DejaVuSans-5f" x="300.878906"/>
     <use xlink:href="#DejaVuSans-6f" x="350.878906"/>
     <use xlink:href="#DejaVuSans-62" x="412.060547"/>
     <use xlink:href="#DejaVuSans-73" x="475.537109"/>
     <use xlink:href="#DejaVuSans-65" x="527.636719"/>
     <use xlink:href="#DejaVuSans-72" x="589.160156"/>
     <use xlink:href="#DejaVuSans-76" x="630.273438"/>
     <use xlink:href="#DejaVuSans-65" x="689.453125"/>
     <use xlink:href="#DejaVuSans-64" x="750.976562"/>
     <use xlink:href="#DejaVuSans-20" x="814.453125"/>
     <use xlink:href="#DejaVuSans-2b" x="846.240234"/>
     <use xlink:href="#DejaVuSans-20" x="930.029297"/>
     <use xlink:href="#DejaVuSans-73" x="961.816406"/>
     <use xlink:href="#DejaVuSans-75" x="1013.916016"/>
     <use xlink:href="#DejaVuSans-62" x="1077.294922"/>
     <use xlink:href="#DejaVuSans-6a" x="1140.771484"/>
     <use xlink:href="#DejaVuSans-65" x="1168.554688"/>
     <use xlink:href="#DejaVuSans-63" x="1230.078125"/>
     <use xlink:href="#DejaVuSans-74" x="1285.058594"/>
     <use xlink:href="#DejaVuSans-69" x="1324.267578"/>
     <use xlink:href="#DejaVuSans-76" x="1352.050781"/>
     <use xlink:href="#DejaVuSans-65" x="1411.230469"/>
     <use xlink:href="#DejaVuSans-5f" x="1472.753906"/>
     <use xlink:href="#DejaVuSans-70" x="1522.753906"/>
     <use xlink:href="#DejaVuSans-72" x="1586.230469"/>
     <use xlink:href="#DejaVuSans-69" x="1627.34375"/>
     <use xlink:href="#DejaVuSans-6f" x="1655.126953"/>
     <use xlink:href="#DejaVuSans-72" x="1716.308594"/>
    </g>
   </g>
   <g id="text_3">
    <g id="patch_4">
     <path d="M 24.451901 309.269031 
L 200.200339 309.269031 
Q 204.700339 309.269031 204.700339 304.769031 
L 204.700339 283.893094 
Q 204.700339 279.393094 200.200339 279.393094 
L 24.451901 279.393094 
Q 19.951901 279.393094 19.951901 283.893094 
L 19.951901 304.769031 
Q 19.951901 309.269031 24.451901 309.269031 
z
" style="fill: #f7f9fb; stroke: #49657a; stroke-width: 1.2; stroke-linejoin: miter"/>
    </g>
    <!-- raw milestones + academic -->
    <g transform="translate(42.824558 291.213406) scale(0.1 -0.1)">
     <use xlink:href="#DejaVuSans-72"/>
     <use xlink:href="#DejaVuSans-61" x="41.113281"/>
     <use xlink:href="#DejaVuSans-77" x="102.392578"/>
     <use xlink:href="#DejaVuSans-20" x="184.179688"/>
     <use xlink:href="#DejaVuSans-6d" x="215.966797"/>
     <use xlink:href="#DejaVuSans-69" x="313.378906"/>
     <use xlink:href="#DejaVuSans-6c" x="341.162109"/>
     <use xlink:href="#DejaVuSans-65" x="368.945312"/>
     <use xlink:href="#DejaVuSans-73" x="430.46875"/>
     <use xlink:href="#DejaVuSans-74" x="482.568359"/>
     <use xlink:href="#DejaVuSans-6f" x="521.777344"/>
     <use xlink:href="#DejaVuSans-6e" x="582.958984"/>
     <use xlink:href="#DejaVuSans-65" x="646.337891"/>
     <use xlink:href="#DejaVuSans-73" x="707.861328"/>
     <use xlink:href="#DejaVuSans-20" x="759.960938"/>
     <use xlink:href="#DejaVuSans-2b" x="791.748047"/>
     <use xlink:href="#DejaVuSans-20" x="875.537109"/>
     <use xlink:href="#DejaVuSans-61" x="907.324219"/>
     <use xlink:href="#DejaVuSans-63" x="968.603516"/>
     <use xlink:href="#DejaVuSans-61" x="1023.583984"/>
     <use xlink:href="#DejaVuSans-64" x="1084.863281"/>
     <use xlink:href="#DejaVuSans-65" x="1148.339844"/>
     <use xlink:href="#DejaVuSans-6d" x="1209.863281"/>
     <use xlink:href="#DejaVuSans-69" x="1307.275391"/>
     <use xlink:href="#DejaVuSans-63" x="1335.058594"/>
    </g>
    <!-- public_observed + subjective_prior -->
    <g transform="translate(24.451901 302.411219) scale(0.1 -0.1)">
     <use xlink:href="#DejaVuSans-70"/>
     <use xlink:href="#DejaVuSans-75" x="63.476562"/>
     <use xlink:href="#DejaVuSans-62" x="126.855469"/>
     <use xlink:href="#DejaVuSans-6c" x="190.332031"/>
     <use xlink:href="#DejaVuSans-69" x="218.115234"/>
     <use xlink:href="#DejaVuSans-63" x="245.898438"/>
     <use xlink:href="#DejaVuSans-5f" x="300.878906"/>
     <use xlink:href="#DejaVuSans-6f" x="350.878906"/>
     <use xlink:href="#DejaVuSans-62" x="412.060547"/>
     <use xlink:href="#DejaVuSans-73" x="475.537109"/>
     <use xlink:href="#DejaVuSans-65" x="527.636719"/>
     <use xlink:href="#DejaVuSans-72" x="589.160156"/>
     <use xlink:href="#DejaVuSans-76" x="630.273438"/>
     <use xlink:href="#DejaVuSans-65" x="689.453125"/>
     <use xlink:href="#DejaVuSans-64" x="750.976562"/>
     <use xlink:href="#DejaVuSans-20" x="814.453125"/>
     <use xlink:href="#DejaVuSans-2b" x="846.240234"/>
     <use xlink:href="#DejaVuSans-20" x="930.029297"/>
     <use xlink:href="#DejaVuSans-73" x="961.816406"/>
     <use xlink:href="#DejaVuSans-75" x="1013.916016"/>
     <use xlink:href="#DejaVuSans-62" x="1077.294922"/>
     <use xlink:href="#DejaVuSans-6a" x="1140.771484"/>
     <use xlink:href="#DejaVuSans-65" x="1168.554688"/>
     <use xlink:href="#DejaVuSans-63" x="1230.078125"/>
     <use xlink:href="#DejaVuSans-74" x="1285.058594"/>
     <use xlink:href="#DejaVuSans-69" x="1324.267578"/>
     <use xlink:href="#DejaVuSans-76" x="1352.050781"/>
     <use xlink:href="#DejaVuSans-65" x="1411.230469"/>
     <use xlink:href="#DejaVuSans-5f" x="1472.753906"/>
     <use xlink:href="#DejaVuSans-70" x="1522.753906"/>
     <use xlink:href="#DejaVuSans-72" x="1586.230469"/>
     <use xlink:href="#DejaVuSans-69" x="1627.34375"/>
     <use xlink:href="#DejaVuSans-6f" x="1655.126953"/>
     <use xlink:href="#DejaVuSans-72" x="1716.308594"/>
    </g>
   </g>
   <g id="text_4">
    <g id="patch_5">
     <path d="M 303.825008 250.229031 
L 474.440633 250.229031 
Q 478.940633 250.229031 478.940633 245.729031 
L 478.940633 224.296844 
Q 478.940633 219.796844 474.440633 219.796844 
L 303.825008 219.796844 
Q 299.325008 219.796844 299.325008 224.296844 
L 299.325008 245.729031 
Q 299.325008 250.229031 303.825008 250.229031 
z
" style="fill: #f7f9fb; stroke: #49657a; stroke-width: 1.2; stroke-linejoin: miter"/>
    </g>
    <!-- enriched_monthly_features.csv -->
    <g transform="translate(311.142195 232.173406) scale(0.1 -0.1)">
     <defs>
      <path id="DejaVuSans-68" d="M 3513 2113 
L 3513 0 
L 2938 0 
L 2938 2094 
Q 2938 2591 2744 2837 
Q 2550 3084 2163 3084 
Q 1697 3084 1428 2787 
Q 1159 2491 1159 1978 
L 1159 0 
L 581 0 
L 581 4863 
L 1159 4863 
L 1159 2956 
Q 1366 3272 1645 3428 
Q 1925 3584 2291 3584 
Q 2894 3584 3203 3211 
Q 3513 2838 3513 2113 
z
" transform="scale(0.015625)"/>
     </defs>
     <use xlink:href="#DejaVuSans-65"/>
     <use xlink:href="#DejaVuSans-6e" x="61.523438"/>
     <use xlink:href="#DejaVuSans-72" x="124.902344"/>
     <use xlink:href="#DejaVuSans-69" x="166.015625"/>
     <use xlink:href="#DejaVuSans-63" x="193.798828"/>
     <use xlink:href="#DejaVuSans-68" x="248.779297"/>
     <use xlink:href="#DejaVuSans-65" x="312.158203"/>
     <use xlink:href="#DejaVuSans-64" x="373.681641"/>
     <use xlink:href="#DejaVuSans-5f" x="437.158203"/>
     <use xlink:href="#DejaVuSans-6d" x="487.158203"/>
     <use xlink:href="#DejaVuSans-6f" x="584.570312"/>
     <use xlink:href="#DejaVuSans-6e" x="645.751953"/>
     <use xlink:href="#DejaVuSans-74" x="709.130859"/>
     <use xlink:href="#DejaVuSans-68" x="748.339844"/>
     <use xlink:href="#DejaVuSans-6c" x="811.71875"/>
     <use xlink:href="#DejaVuSans-79" x="839.501953"/>
     <use xlink:href="#DejaVuSans-5f" x="898.681641"/>
     <use xlink:href="#DejaVuSans-66" x="948.681641"/>
     <use xlink:href="#DejaVuSans-65" x="983.886719"/>
     <use xlink:href="#DejaVuSans-61" x="1045.410156"/>
     <use xlink:href="#DejaVuSans-74" x="1106.689453"/>
     <use xlink:href="#DejaVuSans-75" x="1145.898438"/>
     <use xlink:href="#DejaVuSans-72" x="1209.277344"/>
     <use xlink:href="#DejaVuSans-65" x="1248.140625"/>
     <use xlink:href="#DejaVuSans-73" x="1309.664062"/>
     <use xlink:href="#DejaVuSans-2e" x="1361.763672"/>
     <use xlink:href="#DejaVuSans-63" x="1393.550781"/>
     <use xlink:href="#DejaVuSans-73" x="1448.53125"/>
     <use xlink:href="#DejaVuSans-76" x="1500.630859"/>
    </g>
    <!-- engineered proxies + confidences -->
    <g transform="translate(303.825008 243.649344) scale(0.1 -0.1)">
     <defs>
      <path id="DejaVuSans-67" d="M 2906 1791 
Q 2906 2416 2648 2759 
Q 2391 3103 1925 3103 
Q 1463 3103 1205 2759 
Q 947 2416 947 1791 
Q 947 1169 1205 825 
Q 1463 481 1925 481 
Q 2391 481 2648 825 
Q 2906 1169 2906 1791 
z
M 3481 434 
Q 3481 -459 3084 -895 
Q 2688 -1331 1869 -1331 
Q 1566 -1331 1297 -1286 
Q 1028 -1241 775 -1147 
L 775 -588 
Q 1028 -725 1275 -790 
Q 1522 -856 1778 -856 
Q 2344 -856 2625 -561 
Q 2906 -266 2906 331 
L 2906 616 
Q 2728 306 2450 153 
Q 2172 0 1784 0 
Q 1141 0 747 490 
Q 353 981 353 1791 
Q 353 2603 747 3093 
Q 1141 3584 1784 3584 
Q 2172 3584 2450 3431 
Q 2728 3278 2906 2969 
L 2906 3500 
L 3481 3500 
L 3481 434 
z
" transform="scale(0.015625)"/>
      <path id="DejaVuSans-78" d="M 3513 3500 
L 2247 1797 
L 3578 0 
L 2900 0 
L 1881 1375 
L 863 0 
L 184 0 
L 1544 1831 
L 300 3500 
L 978 3500 
L 1906 2253 
L 2834 3500 
L 3513 3500 
z
" transform="scale(0.015625)"/>
     </defs>
     <use xlink:href="#DejaVuSans-65"/>
     <use xlink:href="#DejaVuSans-6e" x="61.523438"/>
     <use xlink:href="#DejaVuSans-67" x="124.902344"/>
     <use xlink:href="#DejaVuSans-69" x="188.378906"/>
     <use xlink:href="#DejaVuSans-6e" x="216.162109"/>
     <use xlink:href="#DejaVuSans-65" x="279.541016"/>
     <use xlink:href="#DejaVuSans-65" x="341.064453"/>
     <use xlink:href="#DejaVuSans-72" x="402.587891"/>
     <use xlink:href="#DejaVuSans-65" x="441.451172"/>
     <use xlink:href="#DejaVuSans-64" x="502.974609"/>
     <use xlink:href="#DejaVuSans-20" x="566.451172"/>
     <use xlink:href="#DejaVuSans-70" x="598.238281"/>
     <use xlink:href="#DejaVuSans-72" x="661.714844"/>
     <use xlink:href="#DejaVuSans-6f" x="700.578125"/>
     <use xlink:href="#DejaVuSans-78" x="758.634766"/>
     <use xlink:href="#DejaVuSans-69" x="817.814453"/>
     <use xlink:href="#DejaVuSans-65" x="845.597656"/>
     <use xlink:href="#DejaVuSans-73" x="907.121094"/>
     <use xlink:href="#DejaVuSans-20" x="959.220703"/>
     <use xlink:href="#DejaVuSans-2b" x="991.007812"/>
     <use xlink:href="#DejaVuSans-20" x="1074.796875"/>
     <use xlink:href="#DejaVuSans-63" x="1106.583984"/>
     <use xlink:href="#DejaVuSans-6f" x="1161.564453"/>
     <use xlink:href="#DejaVuSans-6e" x="1222.746094"/>
     <use xlink:href="#DejaVuSans-66" x="1286.125"/>
     <use xlink:href="#DejaVuSans-69" x="1321.330078"/>
     <use xlink:href="#DejaVuSans-64" x="1349.113281"/>
     <use xlink:href="#DejaVuSans-65" x="1412.589844"/>
     <use xlink:href="#DejaVuSans-6e" x="1474.113281"/>
     <use xlink:href="#DejaVuSans-63" x="1537.492188"/>
     <use xlink:href="#DejaVuSans-65" x="1592.472656"/>
     <use xlink:href="#DejaVuSans-73" x="1653.996094"/>
    </g>
   </g>
   <g id="text_5">
    <g id="patch_6">
     <path d="M 539.368805 250.368094 
L 681.787555 250.368094 
Q 686.287555 250.368094 686.287555 245.868094 
L 686.287555 224.435906 
Q 686.287555 219.935906 681.787555 219.935906 
L 539.368805 219.935906 
Q 534.868805 219.935906 534.868805 224.435906 
L 534.868805 245.868094 
Q 534.868805 250.368094 539.368805 250.368094 
z
" style="fill: #f7f9fb; stroke: #49657a; stroke-width: 1.2; stroke-linejoin: miter"/>
    </g>
    <!-- enriched_monthly_panel.csv -->
    <g transform="translate(539.368805 232.034344) scale(0.1 -0.1)">
     <use xlink:href="#DejaVuSans-65"/>
     <use xlink:href="#DejaVuSans-6e" x="61.523438"/>
     <use xlink:href="#DejaVuSans-72" x="124.902344"/>
     <use xlink:href="#DejaVuSans-69" x="166.015625"/>
     <use xlink:href="#DejaVuSans-63" x="193.798828"/>
     <use xlink:href="#DejaVuSans-68" x="248.779297"/>
     <use xlink:href="#DejaVuSans-65" x="312.158203"/>
     <use xlink:href="#DejaVuSans-64" x="373.681641"/>
     <use xlink:href="#DejaVuSans-5f" x="437.158203"/>
     <use xlink:href="#DejaVuSans-6d" x="487.158203"/>
     <use xlink:href="#DejaVuSans-6f" x="584.570312"/>
     <use xlink:href="#DejaVuSans-6e" x="645.751953"/>
     <use xlink:href="#DejaVuSans-74" x="709.130859"/>
     <use xlink:href="#DejaVuSans-68" x="748.339844"/>
     <use xlink:href="#DejaVuSans-6c" x="811.71875"/>
     <use xlink:href="#DejaVuSans-79" x="839.501953"/>
     <use xlink:href="#DejaVuSans-5f" x="898.681641"/>
     <use xlink:href="#DejaVuSans-70" x="948.681641"/>
     <use xlink:href="#DejaVuSans-61" x="1012.158203"/>
     <use xlink:href="#DejaVuSans-6e" x="1073.4375"/>
     <use xlink:href="#DejaVuSans-65" x="1136.816406"/>
     <use xlink:href="#DejaVuSans-6c" x="1198.339844"/>
     <use xlink:href="#DejaVuSans-2e" x="1226.123047"/>
     <use xlink:href="#DejaVuSans-63" x="1257.910156"/>
     <use xlink:href="#DejaVuSans-73" x="1312.890625"/>
     <use xlink:href="#DejaVuSans-76" x="1364.990234"/>
    </g>
    <!-- yield_source + proxy flags -->
    <g transform="translate(544.600055 243.510281) scale(0.1 -0.1)">
     <use xlink:href="#DejaVuSans-79"/>
     <use xlink:href="#DejaVuSans-69" x="59.179688"/>
     <use xlink:href="#DejaVuSans-65" x="86.962891"/>
     <use xlink:href="#DejaVuSans-6c" x="148.486328"/>
     <use xlink:href="#DejaVuSans-64" x="176.269531"/>
     <use xlink:href="#DejaVuSans-5f" x="239.746094"/>
     <use xlink:href="#DejaVuSans-73" x="289.746094"/>
     <use xlink:href="#DejaVuSans-6f" x="341.845703"/>
     <use xlink:href="#DejaVuSans-75" x="403.027344"/>
     <use xlink:href="#DejaVuSans-72" x="466.40625"/>
     <use xlink:href="#DejaVuSans-63" x="505.269531"/>
     <use xlink:href="#DejaVuSans-65" x="560.25"/>
     <use xlink:href="#DejaVuSans-20" x="621.773438"/>
     <use xlink:href="#DejaVuSans-2b" x="653.560547"/>
     <use xlink:href="#DejaVuSans-20" x="737.349609"/>
     <use xlink:href="#DejaVuSans-70" x="769.136719"/>
     <use xlink:href="#DejaVuSans-72" x="832.613281"/>
     <use xlink:href="#DejaVuSans-6f" x="871.476562"/>
     <use xlink:href="#DejaVuSans-78" x="929.533203"/>
     <use xlink:href="#DejaVuSans-79" x="988.712891"/>
     <use xlink:href="#DejaVuSans-20" x="1047.892578"/>
     <use xlink:href="#DejaVuSans-66" x="1079.679688"/>
     <use xlink:href="#DejaVuSans-6c" x="1114.884766"/>
     <use xlink:href="#DejaVuSans-61" x="1142.667969"/>
     <use xlink:href="#DejaVuSans-67" x="1203.947266"/>
     <use xlink:href="#DejaVuSans-73" x="1267.423828"/>
    </g>
   </g>
   <g id="text_6">
    <g id="patch_7">
     <path d="M 527.44068 368.169969 
L 693.71568 368.169969 
Q 698.21568 368.169969 698.21568 363.669969 
L 698.21568 342.794031 
Q 698.21568 338.294031 693.71568 338.294031 
L 527.44068 338.294031 
Q 522.94068 338.294031 522.94068 342.794031 
L 522.94068 363.669969 
Q 522.94068 368.169969 527.44068 368.169969 
z
" style="fill: #f7f9fb; stroke: #49657a; stroke-width: 1.2; stroke-linejoin: miter"/>
    </g>
    <!-- model inputs -->
    <g transform="translate(577.953961 350.392469) scale(0.1 -0.1)">
     <use xlink:href="#DejaVuSans-6d"/>
     <use xlink:href="#DejaVuSans-6f" x="97.412109"/>
     <use xlink:href="#DejaVuSans-64" x="158.59375"/>
     <use xlink:href="#DejaVuSans-65" x="222.070312"/>
     <use xlink:href="#DejaVuSans-6c" x="283.59375"/>
     <use xlink:href="#DejaVuSans-20" x="311.376953"/>
     <use xlink:href="#DejaVuSans-69" x="343.164062"/>
     <use xlink:href="#DejaVuSans-6e" x="370.947266"/>
     <use xlink:href="#DejaVuSans-70" x="434.326172"/>
     <use xlink:href="#DejaVuSans-75" x="497.802734"/>
     <use xlink:href="#DejaVuSans-74" x="561.181641"/>
     <use xlink:href="#DejaVuSans-73" x="600.390625"/>
    </g>
    <!-- Observation(month,yield,signals) -->
    <g transform="translate(527.44068 361.590281) scale(0.1 -0.1)">
     <defs>
      <path id="DejaVuSans-2c" d="M 750 794 
L 1409 794 
L 1409 256 
L 897 -744 
L 494 -744 
L 750 256 
L 750 794 
z
" transform="scale(0.015625)"/>
     </defs>
     <use xlink:href="#DejaVuSans-4f"/>
     <use xlink:href="#DejaVuSans-62" x="78.710938"/>
     <use xlink:href="#DejaVuSans-73" x="142.1875"/>
     <use xlink:href="#DejaVuSans-65" x="194.287109"/>
     <use xlink:href="#DejaVuSans-72" x="255.810547"/>
     <use xlink:href="#DejaVuSans-76" x="296.923828"/>
     <use xlink:href="#DejaVuSans-61" x="356.103516"/>
     <use xlink:href="#DejaVuSans-74" x="417.382812"/>
     <use xlink:href="#DejaVuSans-69" x="456.591797"/>
     <use xlink:href="#DejaVuSans-6f" x="484.375"/>
     <use xlink:href="#DejaVuSans-6e" x="545.556641"/>
     <use xlink:href="#DejaVuSans-28" x="608.935547"/>
     <use xlink:href="#DejaVuSans-6d" x="647.949219"/>
     <use xlink:href="#DejaVuSans-6f" x="745.361328"/>
     <use xlink:href="#DejaVuSans-6e" x="806.542969"/>
     <use xlink:href="#DejaVuSans-74" x="869.921875"/>
     <use xlink:href="#DejaVuSans-68" x="909.130859"/>
     <use xlink:href="#DejaVuSans-2c" x="972.509766"/>
     <use xlink:href="#DejaVuSans-79" x="1004.296875"/>
     <use xlink:href="#DejaVuSans-69" x="1063.476562"/>
     <use xlink:href="#DejaVuSans-65" x="1091.259766"/>
     <use xlink:href="#DejaVuSans-6c" x="1152.783203"/>
     <use xlink:href="#DejaVuSans-64" x="1180.566406"/>
     <use xlink:href="#DejaVuSans-2c" x="1244.042969"/>
     <use xlink:href="#DejaVuSans-73" x="1275.830078"/>
     <use xlink:href="#DejaVuSans-69" x="1327.929688"/>
     <use xlink:href="#DejaVuSans-67" x="1355.712891"/>
     <use xlink:href="#DejaVuSans-6e" x="1419.189453"/>
     <use xlink:href="#DejaVuSans-61" x="1482.568359"/>
     <use xlink:href="#DejaVuSans-6c" x="1543.847656"/>
     <use xlink:href="#DejaVuSans-73" x="1571.630859"/>
     <use xlink:href="#DejaVuSans-29" x="1623.730469"/>
    </g>
   </g>
   <g id="text_7">
    <g id="patch_8">
     <path d="M 737.249447 250.089969 
L 889.890072 250.089969 
Q 894.390072 250.089969 894.390072 245.589969 
L 894.390072 224.714031 
Q 894.390072 220.214031 889.890072 220.214031 
L 737.249447 220.214031 
Q 732.749447 220.214031 732.749447 224.714031 
L 732.749447 245.589969 
Q 732.749447 250.089969 737.249447 250.089969 
z
" style="fill: #f7f9fb; stroke: #49657a; stroke-width: 1.2; stroke-linejoin: miter"/>
    </g>
    <!-- posterior updates -->
    <g transform="translate(769.323666 232.312469) scale(0.1 -0.1)">
     <use xlink:href="#DejaVuSans-70"/>
     <use xlink:href="#DejaVuSans-6f" x="63.476562"/>
     <use xlink:href="#DejaVuSans-73" x="124.658203"/>
     <use xlink:href="#DejaVuSans-74" x="176.757812"/>
     <use xlink:href="#DejaVuSans-65" x="215.966797"/>
     <use xlink:href="#DejaVuSans-72" x="277.490234"/>
     <use xlink:href="#DejaVuSans-69" x="318.603516"/>
     <use xlink:href="#DejaVuSans-6f" x="346.386719"/>
     <use xlink:href="#DejaVuSans-72" x="407.568359"/>
     <use xlink:href="#DejaVuSans-20" x="448.681641"/>
     <use xlink:href="#DejaVuSans-75" x="480.46875"/>
     <use xlink:href="#DejaVuSans-70" x="543.847656"/>
     <use xlink:href="#DejaVuSans-64" x="607.324219"/>
     <use xlink:href="#DejaVuSans-61" x="670.800781"/>
     <use xlink:href="#DejaVuSans-74" x="732.080078"/>
     <use xlink:href="#DejaVuSans-65" x="771.289062"/>
     <use xlink:href="#DejaVuSans-73" x="832.8125"/>
    </g>
    <!-- prior -&gt; likelihood -&gt; posterior -->
    <g transform="translate(737.249447 243.510281) scale(0.1 -0.1)">
     <defs>
      <path id="DejaVuSans-2d" d="M 313 2009 
L 1997 2009 
L 1997 1497 
L 313 1497 
L 313 2009 
z
" transform="scale(0.015625)"/>
      <path id="DejaVuSans-3e" d="M 678 3150 
L 678 3719 
L 4684 2266 
L 4684 1747 
L 678 294 
L 678 863 
L 3897 2003 
L 678 3150 
z
" transform="scale(0.015625)"/>
      <path id="DejaVuSans-6b" d="M 581 4863 
L 1159 4863 
L 1159 1991 
L 2875 3500 
L 3609 3500 
L 1753 1863 
L 3688 0 
L 2938 0 
L 1159 1709 
L 1159 0 
L 581 0 
L 581 4863 
z
" transform="scale(0.015625)"/>
     </defs>
     <use xlink:href="#DejaVuSans-70"/>
     <use xlink:href="#DejaVuSans-72" x="63.476562"/>
     <use xlink:href="#DejaVuSans-69" x="104.589844"/>
     <use xlink:href="#DejaVuSans-6f" x="132.373047"/>
     <use xlink:href="#DejaVuSans-72" x="193.554688"/>
     <use xlink:href="#DejaVuSans-20" x="234.667969"/>
     <use xlink:href="#DejaVuSans-2d" x="266.455078"/>
     <use xlink:href="#DejaVuSans-3e" x="302.539062"/>
     <use xlink:href="#DejaVuSans-20" x="386.328125"/>
     <use xlink:href="#DejaVuSans-6c" x="418.115234"/>
     <use xlink:href="#DejaVuSans-69" x="445.898438"/>
     <use xlink:href="#DejaVuSans-6b" x="473.681641"/>
     <use xlink:href="#DejaVuSans-65" x="527.966797"/>
     <use xlink:href="#DejaVuSans-6c" x="589.490234"/>
     <use xlink:href="#DejaVuSans-69" x="617.273438"/>
     <use xlink:href="#DejaVuSans-68" x="645.056641"/>
     <use xlink:href="#DejaVuSans-6f" x="708.435547"/>
     <use xlink:href="#DejaVuSans-6f" x="769.617188"/>
     <use xlink:href="#DejaVuSans-64" x="830.798828"/>
     <use xlink:href="#DejaVuSans-20" x="894.275391"/>
     <use xlink:href="#DejaVuSans-2d" x="926.0625"/>
     <use xlink:href="#DejaVuSans-3e" x="962.146484"/>
     <use xlink:href="#DejaVuSans-20" x="1045.935547"/>
     <use xlink:href="#DejaVuSans-70" x="1077.722656"/>
     <use xlink:href="#DejaVuSans-6f" x="1141.199219"/>
     <use xlink:href="#DejaVuSans-73" x="1202.380859"/>
     <use xlink:href="#DejaVuSans-74" x="1254.480469"/>
     <use xlink:href="#DejaVuSans-65" x="1293.689453"/>
     <use xlink:href="#DejaVuSans-72" x="1355.212891"/>
     <use xlink:href="#DejaVuSans-69" x="1396.326172"/>
     <use xlink:href="#DejaVuSans-6f" x="1424.109375"/>
     <use xlink:href="#DejaVuSans-72" x="1485.291016"/>
    </g>
   </g>
   <g id="text_8">
    <g id="patch_9">
     <path d="M 731.349447 368.309031 
L 895.790072 368.309031 
Q 900.290072 368.309031 900.290072 363.809031 
L 900.290072 342.933094 
Q 900.290072 338.433094 895.790072 338.433094 
L 731.349447 338.433094 
Q 726.849447 338.433094 726.849447 342.933094 
L 726.849447 363.809031 
Q 726.849447 368.309031 731.349447 368.309031 
z
" style="fill: #f7f9fb; stroke: #49657a; stroke-width: 1.2; stroke-linejoin: miter"/>
    </g>
    <!-- audit artifacts -->
    <g transform="translate(778.617416 350.253406) scale(0.1 -0.1)">
     <use xlink:href="#DejaVuSans-61"/>
     <use xlink:href="#DejaVuSans-75" x="61.279297"/>
     <use xlink:href="#DejaVuSans-64" x="124.658203"/>
     <use xlink:href="#DejaVuSans-69" x="188.134766"/>
     <use xlink:href="#DejaVuSans-74" x="215.917969"/>
     <use xlink:href="#DejaVuSans-20" x="255.126953"/>
     <use xlink:href="#DejaVuSans-61" x="286.914062"/>
     <use xlink:href="#DejaVuSans-72" x="348.193359"/>
     <use xlink:href="#DejaVuSans-74" x="389.306641"/>
     <use xlink:href="#DejaVuSans-69" x="428.515625"/>
     <use xlink:href="#DejaVuSans-66" x="456.298828"/>
     <use xlink:href="#DejaVuSans-61" x="491.503906"/>
     <use xlink:href="#DejaVuSans-63" x="552.783203"/>
     <use xlink:href="#DejaVuSans-74" x="607.763672"/>
     <use xlink:href="#DejaVuSans-73" x="646.972656"/>
    </g>
    <!-- plots + trace_matrix + summary -->
    <g transform="translate(731.349447 361.451219) scale(0.1 -0.1)">
     <use xlink:href="#DejaVuSans-70"/>
     <use xlink:href="#DejaVuSans-6c" x="63.476562"/>
     <use xlink:href="#DejaVuSans-6f" x="91.259766"/>
     <use xlink:href="#DejaVuSans-74" x="152.441406"/>
     <use xlink:href="#DejaVuSans-73" x="191.650391"/>
     <use xlink:href="#DejaVuSans-20" x="243.75"/>
     <use xlink:href="#DejaVuSans-2b" x="275.537109"/>
     <use xlink:href="#DejaVuSans-20" x="359.326172"/>
     <use xlink:href="#DejaVuSans-74" x="391.113281"/>
     <use xlink:href="#DejaVuSans-72" x="430.322266"/>
     <use xlink:href="#DejaVuSans-61" x="471.435547"/>
     <use xlink:href="#DejaVuSans-63" x="532.714844"/>
     <use xlink:href="#DejaVuSans-65" x="587.695312"/>
     <use xlink:href="#DejaVuSans-5f" x="649.21875"/>
     <use xlink:href="#DejaVuSans-6d" x="699.21875"/>
     <use xlink:href="#DejaVuSans-61" x="796.630859"/>
     <use xlink:href="#DejaVuSans-74" x="857.910156"/>
     <use xlink:href="#DejaVuSans-72" x="897.119141"/>
     <use xlink:href="#DejaVuSans-69" x="938.232422"/>
     <use xlink:href="#DejaVuSans-78" x="966.015625"/>
     <use xlink:href="#DejaVuSans-20" x="1025.195312"/>
     <use xlink:href="#DejaVuSans-2b" x="1056.982422"/>
     <use xlink:href="#DejaVuSans-20" x="1140.771484"/>
     <use xlink:href="#DejaVuSans-73" x="1172.558594"/>
     <use xlink:href="#DejaVuSans-75" x="1224.658203"/>
     <use xlink:href="#DejaVuSans-6d" x="1288.037109"/>
     <use xlink:href="#DejaVuSans-6d" x="1385.449219"/>
     <use xlink:href="#DejaVuSans-61" x="1482.861328"/>
     <use xlink:href="#DejaVuSans-72" x="1544.140625"/>
     <use xlink:href="#DejaVuSans-79" x="1585.253906"/>
    </g>
   </g>
   <g id="patch_10">
    <path d="M 112.32612 83.649032 
Q 112.32612 134.783746 112.32612 184.353213 
" style="fill: none; stroke: #4f6375; stroke-width: 1.4; stroke-linecap: round"/>
    <path d="M 114.32612 180.353213 
L 112.32612 184.353213 
L 110.32612 180.353213 
" style="fill: none; stroke: #4f6375; stroke-width: 1.4; stroke-linecap: round"/>
   </g>
   <g id="patch_11">
    <path d="M 112.32612 83.649032 
Q 112.32612 187.919782 112.32612 290.625283 
" style="fill: none; stroke: #4f6375; stroke-width: 1.4; stroke-linecap: round"/>
    <path d="M 114.32612 286.625283 
L 112.32612 290.625283 
L 110.32612 286.625283 
" style="fill: none; stroke: #4f6375; stroke-width: 1.4; stroke-linecap: round"/>
   </g>
   <g id="patch_12">
    <path d="M 114.298604 188.256568 
Q 250.728111 211.535768 385.61467 234.551692 
" style="fill: none; stroke: #4f6375; stroke-width: 1.4; stroke-linecap: round"/>
    <path d="M 382.00806 231.907384 
L 385.61467 234.551692 
L 381.335257 235.850395 
" style="fill: none; stroke: #4f6375; stroke-width: 1.4; stroke-linecap: round"/>
   </g>
   <g id="patch_13">
    <path d="M 114.281709 293.774893 
Q 250.72799 264.672316 385.643456 235.896245 
" style="fill: none; stroke: #4f6375; stroke-width: 1.4; stroke-linecap: round"/>
    <path d="M 381.314255 234.774632 
L 385.643456 235.896245 
L 382.148645 238.686639 
" style="fill: none; stroke: #4f6375; stroke-width: 1.4; stroke-linecap: round"/>
   </g>
   <g id="patch_14">
    <path d="M 391.129802 235.152 
Q 499.854459 235.152 607.013868 235.152 
" style="fill: none; stroke: #4f6375; stroke-width: 1.4; stroke-linecap: round"/>
    <path d="M 603.013868 233.152 
L 607.013868 235.152 
L 603.013868 237.152 
" style="fill: none; stroke: #4f6375; stroke-width: 1.4; stroke-linecap: round"/>
   </g>
   <g id="patch_15">
    <path d="M 610.57818 237.151951 
Q 610.57818 294.191224 610.57818 349.66525 
" style="fill: none; stroke: #4f6375; stroke-width: 1.4; stroke-linecap: round"/>
    <path d="M 612.57818 345.66525 
L 610.57818 349.66525 
L 608.57818 345.66525 
" style="fill: none; stroke: #4f6375; stroke-width: 1.4; stroke-linecap: round"/>
   </g>
   <g id="patch_16">
    <path d="M 612.576007 235.152 
Q 712.071534 235.152 810.001813 235.152 
" style="fill: none; stroke: #4f6375; stroke-width: 1.4; stroke-linecap: round"/>
    <path d="M 806.001813 233.152 
L 810.001813 235.152 
L 806.001813 237.152 
" style="fill: none; stroke: #4f6375; stroke-width: 1.4; stroke-linecap: round"/>
   </g>
   <g id="patch_17">
    <path d="M 612.30963 352.224817 
Q 712.075212 294.191277 810.487806 236.94477 
" style="fill: none; stroke: #4f6375; stroke-width: 1.4; stroke-linecap: round"/>
    <path d="M 806.0246 237.22725 
L 810.487806 236.94477 
L 808.035866 240.684822 
" style="fill: none; stroke: #4f6375; stroke-width: 1.4; stroke-linecap: round"/>
   </g>
   <g id="patch_18">
    <path d="M 813.56976 237.151951 
Q 813.56976 294.191224 813.56976 349.66525 
" style="fill: none; stroke: #4f6375; stroke-width: 1.4; stroke-linecap: round"/>
    <path d="M 815.56976 345.66525 
L 813.56976 349.66525 
L 811.56976 345.66525 
" style="fill: none; stroke: #4f6375; stroke-width: 1.4; stroke-linecap: round"/>
   </g>
   <g id="patch_19">
    <path d="M 114.190617 82.370099 
Q 462.947751 217.439927 810.245279 351.944465 
" style="fill: none; stroke: #4f6375; stroke-width: 1.4; stroke-linecap: round"/>
    <path d="M 807.237548 348.634849 
L 810.245279 351.944465 
L 805.792948 352.36488 
" style="fill: none; stroke: #4f6375; stroke-width: 1.4; stroke-linecap: round"/>
   </g>
   <g id="text_9">
    <!-- Traceability rule: every plotted datapoint is mapped to source_id/source_url + transform_step in trace_matrix.csv -->
    <g style="fill: #24445a" transform="translate(216.09925 521.164312) scale(0.1 -0.1)">
     <defs>
      <path id="DejaVuSans-54" d="M -19 4666 
L 3928 4666 
L 3928 4134 
L 2272 4134 
L 2272 0 
L 1638 0 
L 1638 4134 
L -19 4134 
L -19 4666 
z
" transform="scale(0.015625)"/>
      <path id="DejaVuSans-3a" d="M 750 794 
L 1409 794 
L 1409 0 
L 750 0 
L 750 794 
z
M 750 3309 
L 1409 3309 
L 1409 2516 
L 750 2516 
L 750 3309 
z
" transform="scale(0.015625)"/>
     </defs>
     <use xlink:href="#DejaVuSans-54"/>
     <use xlink:href="#DejaVuSans-72" x="46.333984"/>
     <use xlink:href="#DejaVuSans-61" x="87.447266"/>
     <use xlink:href="#DejaVuSans-63" x="148.726562"/>
     <use xlink:href="#DejaVuSans-65" x="203.707031"/>
     <use xlink:href="#DejaVuSans-61" x="265.230469"/>
     <use xlink:href="#DejaVuSans-62" x="326.509766"/>
     <use xlink:href="#DejaVuSans-69" x="389.986328"/>
     <use xlink:href="#DejaVuSans-6c" x="417.769531"/>
     <use xlink:href="#DejaVuSans-69" x="445.552734"/>
     <use xlink:href="#DejaVuSans-74" x="473.335938"/>
     <use xlink:href="#DejaVuSans-79" x="512.544922"/>
     <use xlink:href="#DejaVuSans-20" x="571.724609"/>
     <use xlink:href="#DejaVuSans-72" x="603.511719"/>
     <use xlink:href="#DejaVuSans-75" x="644.625"/>
     <use xlink:href="#DejaVuSans-6c" x="708.003906"/>
     <use xlink:href="#DejaVuSans-65" x="735.787109"/>
     <use xlink:href="#DejaVuSans-3a" x="797.310547"/>
     <use xlink:href="#DejaVuSans-20" x="831.001953"/>
     <use xlink:href="#DejaVuSans-65" x="862.789062"/>
     <use xlink:href="#DejaVuSans-76" x="924.3125"/>
     <use xlink:href="#DejaVuSans-65" x="983.492188"/>
     <use xlink:href="#DejaVuSans-72" x="1045.015625"/>
     <use xlink:href="#DejaVuSans-79" x="1086.128906"/>
     <use xlink:href="#DejaVuSans-20" x="1145.308594"/>
     <use xlink:href="#DejaVuSans-70" x="1177.095703"/>
     <use xlink:href="#DejaVuSans-6c" x="1240.572266"/>
     <use xlink:href="#DejaVuSans-6f" x="1268.355469"/>
     <use xlink:href="#DejaVuSans-74" x="1329.537109"/>
     <use xlink:href="#DejaVuSans-74" x="1368.746094"/>
     <use xlink:href="#DejaVuSans-65" x="1407.955078"/>
     <use xlink:href="#DejaVuSans-64" x="1469.478516"/>
     <use xlink:href="#DejaVuSans-20" x="1532.955078"/>
     <use xlink:href="#DejaVuSans-64" x="1564.742188"/>
     <use xlink:href="#DejaVuSans-61" x="1628.21875"/>
     <use xlink:href="#DejaVuSans-74" x="1689.498047"/>
     <use xlink:href="#DejaVuSans-61" x="1728.707031"/>
     <use xlink:href="#DejaVuSans-70" x="1789.986328"/>
     <use xlink:href="#DejaVuSans-6f" x="1853.462891"/>
     <use xlink:href="#DejaVuSans-69" x="1914.644531"/>
     <use xlink:href="#DejaVuSans-6e" x="1942.427734"/>
     <use xlink:href="#DejaVuSans-74" x="2005.806641"/>
     <use xlink:href="#DejaVuSans-20" x="2045.015625"/>
     <use xlink:href="#DejaVuSans-69" x="2076.802734"/>
     <use xlink:href="#DejaVuSans-73" x="2104.585938"/>
     <use xlink:href="#DejaVuSans-20" x="2156.685547"/>
     <use xlink:href="#DejaVuSans-6d" x="2188.472656"/>
     <use xlink:href="#DejaVuSans-61" x="2285.884766"/>
     <use xlink:href="#DejaVuSans-70" x="2347.164062"/>
     <use xlink:href="#DejaVuSans-70" x="2410.640625"/>
     <use xlink:href="#DejaVuSans-65" x="2474.117188"/>
     <use xlink:href="#DejaVuSans-64" x="2535.640625"/>
     <use xlink:href="#DejaVuSans-20" x="2599.117188"/>
     <use xlink:href="#DejaVuSans-74" x="2630.904297"/>
     <use xlink:href="#DejaVuSans-6f" x="2670.113281"/>
     <use xlink:href="#DejaVuSans-20" x="2731.294922"/>
     <use xlink:href="#DejaVuSans-73" x="2763.082031"/>
     <use xlink:href="#DejaVuSans-6f" x="2815.181641"/>
     <use xlink:href="#DejaVuSans-75" x="2876.363281"/>
     <use xlink:href="#DejaVuSans-72" x="2939.742188"/>
     <use xlink:href="#DejaVuSans-63" x="2978.605469"/>
     <use xlink:href="#DejaVuSans-65" x="3033.585938"/>
     <use xlink:href="#DejaVuSans-5f" x="3095.109375"/>
     <use xlink:href="#DejaVuSans-69" x="3145.109375"/>
     <use xlink:href="#DejaVuSans-64" x="3172.892578"/>
     <use xlink:href="#DejaVuSans-2f" x="3236.369141"/>
     <use xlink:href="#DejaVuSans-73" x="3270.060547"/>
     <use xlink:href="#DejaVuSans-6f" x="3322.160156"/>
     <use xlink:href="#DejaVuSans-75" x="3383.341797"/>
     <use xlink:href="#DejaVuSans-72" x="3446.720703"/>
     <use xlink:href="#DejaVuSans-63" x="3485.583984"/>
     <use xlink:href="#DejaVuSans-65" x="3540.564453"/>
     <use xlink:href="#DejaVuSans-5f" x="3602.087891"/>
     <use xlink:href="#DejaVuSans-75" x="3652.087891"/>
     <use xlink:href="#DejaVuSans-72" x="3715.466797"/>
     <use xlink:href="#DejaVuSans-6c" x="3756.580078"/>
     <use xlink:href="#DejaVuSans-20" x="3784.363281"/>
     <use xlink:href="#DejaVuSans-2b" x="3816.150391"/>
     <use xlink:href="#DejaVuSans-20" x="3899.939453"/>
     <use xlink:href="#DejaVuSans-74" x="3931.726562"/>
     <use xlink:href="#DejaVuSans-72" x="3970.935547"/>
     <use xlink:href="#DejaVuSans-61" x="4012.048828"/>
     <use xlink:href="#DejaVuSans-6e" x="4073.328125"/>
     <use xlink:href="#DejaVuSans-73" x="4136.707031"/>
     <use xlink:href="#DejaVuSans-66" x="4188.806641"/>
     <use xlink:href="#DejaVuSans-6f" x="4224.011719"/>
     <use xlink:href="#DejaVuSans-72" x="4285.193359"/>
     <use xlink:href="#DejaVuSans-6d" x="4324.556641"/>
     <use xlink:href="#DejaVuSans-5f" x="4421.96875"/>
     <use xlink:href="#DejaVuSans-73" x="4471.96875"/>
     <use xlink:href="#DejaVuSans-74" x="4524.068359"/>
     <use xlink:href="#DejaVuSans-65" x="4563.277344"/>
     <use xlink:href="#DejaVuSans-70" x="4624.800781"/>
     <use xlink:href="#DejaVuSans-20" x="4688.277344"/>
     <use xlink:href="#DejaVuSans-69" x="4720.064453"/>
     <use xlink:href="#DejaVuSans-6e" x="4747.847656"/>
     <use xlink:href="#DejaVuSans-20" x="4811.226562"/>
     <use xlink:href="#DejaVuSans-74" x="4843.013672"/>
     <use xlink:href="#DejaVuSans-72" x="4882.222656"/>
     <use xlink:href="#DejaVuSans-61" x="4923.335938"/>
     <use xlink:href="#DejaVuSans-63" x="4984.615234"/>
     <use xlink:href="#DejaVuSans-65" x="5039.595703"/>
     <use xlink:href="#DejaVuSans-5f" x="5101.119141"/>
     <use xlink:href="#DejaVuSans-6d" x="5151.119141"/>
     <use xlink:href="#DejaVuSans-61" x="5248.53125"/>
     <use xlink:href="#DejaVuSans-74" x="5309.810547"/>
     <use xlink:href="#DejaVuSans-72" x="5349.019531"/>
     <use xlink:href="#DejaVuSans-69" x="5390.132812"/>
     <use xlink:href="#DejaVuSans-78" x="5417.916016"/>
     <use xlink:href="#DejaVuSans-2e" x="5477.095703"/>
     <use xlink:href="#DejaVuSans-63" x="5508.882812"/>
     <use xlink:href="#DejaVuSans-73" x="5563.863281"/>
     <use xlink:href="#DejaVuSans-76" x="5615.962891"/>
    </g>
   </g>
  </g>
 </g>
</svg>
